<?xml version="1.0" encoding="UTF-8"?><svg xmlns="http://www.w3.org/2000/svg" xmlns:xlink="http://www.w3.org/1999/xlink" contentScriptType="text/ecmascript" width="93.75" zoomAndPan="magnify" contentStyleType="text/css" viewBox="0 0 93.75 38.999999" height="38.999999" preserveAspectRatio="xMidYMid meet" version="1.0"><defs><clipPath id="clip-0"><path d="M 0.75 0.800781 L 14 0.800781 L 14 28 L 0.75 28 Z M 0.75 0.800781 " clip-rule="nonzero"/></clipPath><clipPath id="clip-1"><path d="M 19 5 L 35.25 5 L 35.25 38.300781 L 19 38.300781 Z M 19 5 " clip-rule="nonzero"/></clipPath><clipPath id="clip-2"><path d="M 36.171875 0.800781 L 60 0.800781 L 60 35 L 36.171875 35 Z M 36.171875 0.800781 " clip-rule="nonzero"/></clipPath><clipPath id="clip-3"><path d="M 36.171875 4 L 64.671875 4 L 64.671875 38.300781 L 36.171875 38.300781 Z M 36.171875 4 " clip-rule="nonzero"/></clipPath><clipPath id="clip-4"><path d="M 64.398438 0.800781 L 89 0.800781 L 89 35 L 64.398438 35 Z M 64.398438 0.800781 " clip-rule="nonzero"/></clipPath><clipPath id="clip-5"><path d="M 64.398438 4 L 92.898438 4 L 92.898438 38.300781 L 64.398438 38.300781 Z M 64.398438 4 " clip-rule="nonzero"/></clipPath></defs><g clip-path="url(#clip-0)"><path fill="rgb(13.729858%, 12.159729%, 12.548828%)" d="M 1.941406 19.289062 C 1.941406 16.46875 2.320312 13.910156 3.066406 11.679688 C 3.808594 9.464844 4.902344 7.546875 6.316406 5.976562 C 7.660156 4.492188 9.351562 3.339844 11.351562 2.550781 C 11.855469 2.351562 12.375 2.175781 12.902344 2.027344 C 13.21875 1.9375 13.402344 1.609375 13.3125 1.296875 C 13.21875 0.984375 12.890625 0.804688 12.574219 0.890625 C 12.011719 1.050781 11.449219 1.238281 10.910156 1.453125 C 8.742188 2.3125 6.894531 3.566406 5.429688 5.191406 C 3.902344 6.882812 2.730469 8.941406 1.9375 11.304688 C 1.148438 13.65625 0.75 16.34375 0.75 19.289062 C 0.75 22.285156 1.15625 24.992188 1.949219 27.332031 C 2.035156 27.578125 2.265625 27.734375 2.515625 27.734375 C 2.578125 27.734375 2.640625 27.722656 2.703125 27.703125 C 3.015625 27.597656 3.183594 27.261719 3.078125 26.953125 C 2.324219 24.734375 1.941406 22.15625 1.941406 19.289062 " fill-opacity="1" fill-rule="nonzero"/></g><g clip-path="url(#clip-1)"><path fill="rgb(13.729858%, 12.159729%, 12.548828%)" d="M 34.035156 11.246094 C 33.316406 9.109375 32.296875 7.246094 31.003906 5.703125 C 30.796875 5.449219 30.421875 5.414062 30.167969 5.625 C 29.914062 5.832031 29.878906 6.203125 30.089844 6.453125 C 31.285156 7.886719 32.234375 9.625 32.90625 11.621094 C 33.660156 13.855469 34.042969 16.4375 34.042969 19.289062 C 34.042969 22.136719 33.652344 24.722656 32.882812 26.964844 C 32.121094 29.191406 31.039062 31.070312 29.671875 32.546875 C 28.265625 34.082031 26.574219 35.253906 24.652344 36.027344 C 23.203125 36.609375 21.578125 36.980469 19.816406 37.128906 C 19.488281 37.15625 19.246094 37.441406 19.273438 37.765625 C 19.296875 38.074219 19.558594 38.304688 19.863281 38.304688 C 19.882812 38.304688 19.898438 38.304688 19.914062 38.304688 C 21.796875 38.148438 23.542969 37.75 25.101562 37.121094 C 27.191406 36.28125 29.023438 35.007812 30.550781 33.34375 C 32.03125 31.746094 33.195312 29.726562 34.011719 27.34375 C 34.824219 24.980469 35.234375 22.269531 35.234375 19.289062 C 35.234375 16.308594 34.832031 13.601562 34.035156 11.246094 " fill-opacity="1" fill-rule="nonzero"/></g><path fill="rgb(13.729858%, 12.159729%, 12.548828%)" d="M 24.675781 2.558594 C 25.15625 2.753906 25.621094 2.972656 26.0625 3.207031 C 26.152344 3.257812 26.25 3.277344 26.34375 3.277344 C 26.554688 3.277344 26.761719 3.164062 26.867188 2.96875 C 27.023438 2.679688 26.914062 2.320312 26.625 2.167969 C 26.148438 1.914062 25.644531 1.679688 25.128906 1.46875 C 24.824219 1.34375 24.476562 1.488281 24.351562 1.789062 C 24.226562 2.089844 24.371094 2.433594 24.675781 2.558594 " fill-opacity="1" fill-rule="nonzero"/><path fill="rgb(13.729858%, 12.159729%, 12.548828%)" d="M 26.089844 8.980469 C 28.078125 11.367188 29.085938 14.832031 29.085938 19.289062 C 29.085938 22.773438 28.472656 25.65625 27.265625 27.855469 C 27.109375 28.144531 27.21875 28.5 27.507812 28.65625 C 27.792969 28.8125 28.15625 28.707031 28.3125 28.421875 C 29.617188 26.046875 30.277344 22.972656 30.277344 19.289062 C 30.277344 14.550781 29.175781 10.832031 27.007812 8.226562 C 24.816406 5.589844 21.785156 4.253906 18.003906 4.253906 C 14.191406 4.253906 11.148438 5.589844 8.964844 8.226562 C 6.804688 10.832031 5.710938 14.550781 5.710938 19.289062 C 5.710938 24.074219 6.828125 27.804688 9.027344 30.378906 C 9.148438 30.515625 9.3125 30.585938 9.484375 30.585938 C 9.621094 30.585938 9.757812 30.539062 9.867188 30.445312 C 10.117188 30.234375 10.148438 29.863281 9.9375 29.613281 C 7.921875 27.261719 6.902344 23.785156 6.902344 19.289062 C 6.902344 14.832031 7.902344 11.363281 9.882812 8.976562 C 11.859375 6.59375 14.515625 5.433594 18.003906 5.433594 C 21.460938 5.433594 24.105469 6.59375 26.089844 8.980469 " fill-opacity="1" fill-rule="nonzero"/><g clip-path="url(#clip-2)"><path fill="rgb(13.729858%, 12.159729%, 12.548828%)" d="M 46.164062 21.59375 C 47.722656 21.910156 49.214844 22.171875 50.597656 22.375 C 51.957031 22.574219 53.230469 22.832031 54.394531 23.136719 C 55.855469 23.519531 56.945312 24.046875 57.636719 24.710938 C 58.28125 25.328125 58.609375 26.34375 58.609375 27.722656 C 58.609375 29.335938 57.898438 30.589844 56.433594 31.566406 C 54.917969 32.578125 52.742188 33.089844 49.960938 33.089844 C 47.980469 33.089844 45.824219 32.695312 43.554688 31.921875 C 43.246094 31.816406 42.914062 31.976562 42.808594 32.28125 C 42.703125 32.585938 42.867188 32.914062 43.171875 33.019531 C 45.566406 33.835938 47.847656 34.25 49.960938 34.25 C 52.976562 34.25 55.375 33.671875 57.089844 32.53125 C 58.875 31.339844 59.78125 29.722656 59.78125 27.722656 C 59.78125 26.015625 59.335938 24.722656 58.453125 23.875 C 57.617188 23.070312 56.351562 22.445312 54.695312 22.015625 C 53.492188 21.699219 52.171875 21.433594 50.773438 21.226562 C 49.40625 21.027344 47.9375 20.765625 46.40625 20.457031 C 43.40625 19.828125 41.164062 18.75 39.742188 17.253906 C 38.34375 15.785156 37.636719 13.828125 37.636719 11.4375 C 37.636719 8.671875 38.785156 6.46875 41.15625 4.695312 C 43.539062 2.910156 46.621094 2.003906 50.316406 2.003906 C 52.746094 2.003906 55.003906 2.238281 57.023438 2.695312 C 57.335938 2.769531 57.652344 2.574219 57.726562 2.261719 C 57.796875 1.949219 57.601562 1.636719 57.285156 1.5625 C 55.179688 1.085938 52.835938 0.84375 50.316406 0.84375 C 46.359375 0.84375 43.039062 1.828125 40.445312 3.769531 C 37.800781 5.75 36.460938 8.328125 36.460938 11.4375 C 36.460938 14.132812 37.277344 16.355469 38.890625 18.050781 C 40.476562 19.722656 42.921875 20.914062 46.164062 21.59375 " fill-opacity="1" fill-rule="nonzero"/></g><g clip-path="url(#clip-3)"><path fill="rgb(13.729858%, 12.159729%, 12.548828%)" d="M 62.519531 20.816406 C 61.117188 19.347656 59.03125 18.242188 56.300781 17.523438 C 55.003906 17.195312 53.390625 16.867188 51.507812 16.550781 C 49.652344 16.238281 48.207031 15.972656 47.222656 15.757812 C 45.4375 15.351562 44.1875 14.769531 43.511719 14.03125 C 42.859375 13.316406 42.527344 12.292969 42.527344 10.992188 C 42.527344 9.550781 43.191406 8.402344 44.5625 7.476562 C 45.65625 6.734375 47.054688 6.269531 48.722656 6.101562 C 49.046875 6.070312 49.28125 5.785156 49.246094 5.464844 C 49.214844 5.144531 48.921875 4.917969 48.601562 4.945312 C 46.738281 5.132812 45.15625 5.664062 43.898438 6.515625 C 42.210938 7.660156 41.351562 9.164062 41.351562 10.992188 C 41.351562 12.589844 41.785156 13.875 42.644531 14.8125 C 43.496094 15.742188 44.90625 16.421875 46.964844 16.890625 C 47.976562 17.113281 49.4375 17.382812 51.3125 17.695312 C 53.160156 18.007812 54.742188 18.328125 56.007812 18.648438 C 58.515625 19.308594 60.417969 20.304688 61.664062 21.613281 C 62.882812 22.890625 63.496094 24.722656 63.496094 27.066406 C 63.496094 28.335938 63.191406 29.613281 62.59375 30.859375 C 61.992188 32.105469 61.140625 33.175781 60.0625 34.039062 C 58.855469 34.992188 57.425781 35.75 55.816406 36.292969 C 54.199219 36.832031 52.214844 37.105469 49.914062 37.105469 C 47.421875 37.105469 45.15625 36.875 43.175781 36.417969 C 41.1875 35.957031 39.136719 35.265625 37.074219 34.359375 C 36.777344 34.230469 36.429688 34.363281 36.300781 34.65625 C 36.167969 34.949219 36.300781 35.292969 36.597656 35.421875 C 38.726562 36.359375 40.851562 37.074219 42.910156 37.550781 C 44.976562 38.027344 47.332031 38.269531 49.914062 38.269531 C 52.339844 38.269531 54.453125 37.972656 56.191406 37.390625 C 57.933594 36.808594 59.484375 35.984375 60.796875 34.945312 C 62.015625 33.96875 62.976562 32.761719 63.652344 31.359375 C 64.328125 29.953125 64.671875 28.507812 64.671875 27.066406 C 64.671875 24.417969 63.945312 22.3125 62.519531 20.816406 " fill-opacity="1" fill-rule="nonzero"/></g><path fill="rgb(13.729858%, 12.159729%, 12.548828%)" d="M 58.371094 7.695312 C 59.066406 7.992188 59.71875 8.316406 60.308594 8.664062 C 60.402344 8.71875 60.503906 8.742188 60.605469 8.742188 C 60.808594 8.742188 61.003906 8.640625 61.113281 8.460938 C 61.277344 8.183594 61.1875 7.828125 60.90625 7.664062 C 60.277344 7.292969 59.578125 6.945312 58.832031 6.625 C 58.535156 6.5 58.191406 6.636719 58.0625 6.929688 C 57.933594 7.226562 58.070312 7.566406 58.371094 7.695312 " fill-opacity="1" fill-rule="nonzero"/><g clip-path="url(#clip-4)"><path fill="rgb(13.729858%, 12.159729%, 12.548828%)" d="M 74.394531 21.59375 C 75.949219 21.910156 77.441406 22.171875 78.828125 22.375 C 80.183594 22.574219 81.457031 22.832031 82.621094 23.136719 C 84.082031 23.519531 85.171875 24.046875 85.863281 24.710938 C 86.507812 25.328125 86.835938 26.34375 86.835938 27.722656 C 86.835938 29.335938 86.125 30.589844 84.660156 31.566406 C 83.144531 32.578125 80.96875 33.089844 78.1875 33.089844 C 76.207031 33.089844 74.050781 32.695312 71.78125 31.921875 C 71.472656 31.816406 71.140625 31.976562 71.035156 32.28125 C 70.929688 32.585938 71.09375 32.914062 71.398438 33.019531 C 73.792969 33.835938 76.078125 34.25 78.1875 34.25 C 81.207031 34.25 83.605469 33.671875 85.316406 32.53125 C 87.105469 31.339844 88.011719 29.722656 88.011719 27.722656 C 88.011719 26.015625 87.5625 24.722656 86.679688 23.875 C 85.84375 23.070312 84.578125 22.445312 82.921875 22.015625 C 81.71875 21.699219 80.398438 21.433594 79 21.226562 C 77.632812 21.027344 76.164062 20.765625 74.632812 20.457031 C 71.632812 19.828125 69.390625 18.75 67.972656 17.253906 C 66.574219 15.785156 65.863281 13.828125 65.863281 11.4375 C 65.863281 8.671875 67.015625 6.46875 69.382812 4.695312 C 71.765625 2.910156 74.847656 2.003906 78.546875 2.003906 C 80.972656 2.003906 83.230469 2.238281 85.25 2.695312 C 85.5625 2.769531 85.878906 2.574219 85.953125 2.261719 C 86.027344 1.949219 85.828125 1.636719 85.511719 1.5625 C 83.40625 1.085938 81.0625 0.84375 78.546875 0.84375 C 74.585938 0.84375 71.265625 1.828125 68.671875 3.769531 C 66.03125 5.75 64.691406 8.328125 64.691406 11.4375 C 64.691406 14.132812 65.507812 16.355469 67.117188 18.050781 C 68.703125 19.722656 71.152344 20.914062 74.394531 21.59375 " fill-opacity="1" fill-rule="nonzero"/></g><g clip-path="url(#clip-5)"><path fill="rgb(13.729858%, 12.159729%, 12.548828%)" d="M 90.746094 20.816406 C 89.347656 19.347656 87.257812 18.242188 84.53125 17.523438 C 83.230469 17.195312 81.617188 16.867188 79.734375 16.550781 C 77.878906 16.238281 76.4375 15.972656 75.449219 15.757812 C 73.664062 15.351562 72.414062 14.769531 71.742188 14.03125 C 71.085938 13.316406 70.753906 12.292969 70.753906 10.992188 C 70.753906 9.550781 71.417969 8.402344 72.789062 7.476562 C 73.882812 6.734375 75.285156 6.269531 76.949219 6.101562 C 77.273438 6.070312 77.507812 5.785156 77.476562 5.464844 C 77.441406 5.144531 77.148438 4.917969 76.832031 4.945312 C 74.964844 5.132812 73.382812 5.664062 72.125 6.515625 C 70.4375 7.660156 69.578125 9.164062 69.578125 10.992188 C 69.578125 12.589844 70.015625 13.875 70.871094 14.8125 C 71.722656 15.742188 73.132812 16.421875 75.191406 16.890625 C 76.203125 17.113281 77.664062 17.382812 79.539062 17.695312 C 81.386719 18.007812 82.96875 18.328125 84.234375 18.648438 C 86.742188 19.308594 88.644531 20.304688 89.890625 21.613281 C 91.109375 22.890625 91.726562 24.722656 91.726562 27.066406 C 91.726562 28.335938 91.421875 29.613281 90.820312 30.859375 C 90.222656 32.105469 89.367188 33.175781 88.289062 34.039062 C 87.085938 34.992188 85.65625 35.75 84.042969 36.292969 C 82.425781 36.832031 80.441406 37.105469 78.140625 37.105469 C 75.648438 37.105469 73.382812 36.875 71.402344 36.417969 C 69.417969 35.957031 67.363281 35.265625 65.300781 34.359375 C 65.003906 34.230469 64.65625 34.363281 64.527344 34.65625 C 64.394531 34.949219 64.527344 35.292969 64.824219 35.421875 C 66.957031 36.359375 69.078125 37.074219 71.136719 37.550781 C 73.203125 38.027344 75.5625 38.269531 78.140625 38.269531 C 80.570312 38.269531 82.679688 37.972656 84.417969 37.390625 C 86.160156 36.808594 87.710938 35.984375 89.027344 34.945312 C 90.242188 33.96875 91.203125 32.761719 91.878906 31.359375 C 92.554688 29.953125 92.898438 28.507812 92.898438 27.066406 C 92.898438 24.417969 92.175781 22.3125 90.746094 20.816406 " fill-opacity="1" fill-rule="nonzero"/></g><path fill="rgb(13.729858%, 12.159729%, 12.548828%)" d="M 86.597656 7.695312 C 87.296875 7.992188 87.949219 8.316406 88.535156 8.664062 C 88.628906 8.71875 88.730469 8.742188 88.832031 8.742188 C 89.035156 8.742188 89.230469 8.640625 89.339844 8.460938 C 89.503906 8.183594 89.414062 7.828125 89.132812 7.664062 C 88.503906 7.292969 87.804688 6.945312 87.058594 6.625 C 86.761719 6.5 86.417969 6.636719 86.289062 6.929688 C 86.160156 7.226562 86.300781 7.566406 86.597656 7.695312 " fill-opacity="1" fill-rule="nonzero"/></svg>